<svg width="65.000000" height="65.000000" viewBox="0 0 65 65" fill="none" xmlns="http://www.w3.org/2000/svg" xmlns:xlink="http://www.w3.org/1999/xlink">
	<desc>
			Created with Pixso.
	</desc>
	<defs>
		<clipPath id="clip7_69">
			<rect id="what-4" rx="-0.500000" width="64.000000" height="64.000000" transform="translate(0.500000 0.500000)" fill="white" fill-opacity="0"/>
		</clipPath>
	</defs>
	<rect id="what-4" rx="-0.500000" width="64.000000" height="64.000000" transform="translate(0.500000 0.500000)" fill="#FFFFFF" fill-opacity="0"/>
	<g clip-path="url(#clip7_69)">
		<path id="Vector" d="M63.13 51.5C64.32 52.7 64.99 54.32 64.99 56.02C64.99 57.71 64.32 59.33 63.13 60.53L60.54 63.13C59.94 63.72 59.24 64.19 58.46 64.51C57.69 64.83 56.86 65 56.02 65C55.18 65 54.35 64.83 53.57 64.51C52.8 64.19 52.09 63.72 51.5 63.13L30.98 42.61L28.12 45.47C28.2 46.39 28.07 47.32 27.75 48.19C27.43 49.06 26.93 49.84 26.27 50.5L23.55 53.22C22.95 53.82 22.25 54.29 21.47 54.61C20.7 54.93 19.87 55.09 19.03 55.09C18.19 55.09 17.36 54.93 16.58 54.61C15.81 54.29 15.11 53.82 14.51 53.22L1.86 40.57C0.66 39.37 -0.01 37.75 -0.01 36.06C-0.01 34.36 0.66 32.74 1.86 31.54L4.59 28.81C5.24 28.16 6.03 27.65 6.89 27.33C7.76 27.01 8.69 26.89 9.61 26.96L26.97 9.61C26.89 8.69 27.02 7.77 27.34 6.9C27.66 6.03 28.16 5.24 28.81 4.59L31.54 1.87C32.13 1.27 32.83 0.8 33.61 0.48C34.38 0.16 35.21 -0.01 36.05 0C37.76 0 39.36 0.66 40.57 1.87L53.22 14.52C54.42 15.72 55.09 17.34 55.09 19.03C55.09 20.72 54.42 22.35 53.22 23.55L50.5 26.27C49.84 26.93 49.06 27.43 48.19 27.75C47.32 28.07 46.39 28.2 45.47 28.12L42.61 30.99L63.13 51.5ZM31.16 35.78L35.78 31.16L39.24 27.7L44.39 22.55L44.79 22.95C45.12 23.27 45.55 23.44 45.98 23.44C46.41 23.44 46.84 23.27 47.17 22.95L49.9 20.22C50.05 20.07 50.17 19.88 50.26 19.68C50.34 19.47 50.39 19.25 50.39 19.03C50.39 18.81 50.34 18.59 50.26 18.39C50.17 18.19 50.05 18 49.9 17.85L37.24 5.19C37.09 5.04 36.9 4.91 36.7 4.83C36.49 4.74 36.27 4.7 36.05 4.7C35.62 4.7 35.19 4.86 34.87 5.19L32.14 7.92C31.98 8.07 31.86 8.26 31.77 8.46C31.69 8.67 31.65 8.88 31.65 9.11C31.65 9.33 31.69 9.54 31.77 9.75C31.86 9.95 31.98 10.14 32.14 10.29L32.54 10.69L10.69 32.54L10.29 32.14C10.13 31.98 9.95 31.86 9.74 31.78C9.54 31.69 9.32 31.65 9.1 31.65C8.67 31.65 8.24 31.81 7.91 32.14L5.19 34.87C5.03 35.02 4.91 35.21 4.82 35.41C4.74 35.61 4.7 35.83 4.7 36.05C4.7 36.27 4.74 36.49 4.82 36.7C4.91 36.9 5.03 37.09 5.19 37.24L17.84 49.9C18.17 50.22 18.6 50.39 19.03 50.39C19.46 50.39 19.89 50.22 20.22 49.9L22.94 47.17C23.1 47.01 23.22 46.83 23.31 46.62C23.39 46.42 23.44 46.2 23.44 45.98C23.44 45.76 23.39 45.54 23.31 45.34C23.22 45.13 23.1 44.95 22.94 44.79L22.54 44.39L27.7 39.24L31.16 35.78ZM59.8 54.83L39.28 34.31L34.31 39.28L54.83 59.8C55.16 60.13 55.59 60.29 56.02 60.29C56.45 60.29 56.88 60.13 57.21 59.8L59.8 57.21C59.96 57.05 60.08 56.86 60.16 56.66C60.25 56.46 60.29 56.24 60.29 56.02C60.29 55.8 60.25 55.58 60.16 55.37C60.08 55.17 59.96 54.99 59.8 54.83Z" fill="#3172B9" fill-opacity="1.000000" fill-rule="nonzero"/>
	</g>
</svg>
