<svg width="115.000000" height="44.000000" viewBox="0 0 115 44" fill="none" xmlns="http://www.w3.org/2000/svg" xmlns:xlink="http://www.w3.org/1999/xlink">
	<desc>
			Created with Pixso.
	</desc>
	<defs>
		<clipPath id="clip9_5">
			<rect rx="-0.500000" width="114.000000" height="43.000000" transform="translate(0.500000 0.500000)" fill="white" fill-opacity="0"/>
		</clipPath>
	</defs>
	<rect rx="-0.500000" width="114.000000" height="43.000000" transform="translate(0.500000 0.500000)" fill="#FFFFFF" fill-opacity="0"/>
	<g clip-path="url(#clip9_5)">
		<path d="M-0.01 25.44L-0.01 0.32L3.22 0.32L3.22 22.17L12.13 22.17L12.13 25.43L-0.01 25.44ZM21 0.32L21 25.43L17.78 25.43L17.78 0.32L21 0.32ZM49 3.76C51.49 6.27 52.74 9.3 52.74 12.85C52.74 16.39 51.49 19.42 49 21.93C46.51 24.44 43.5 25.7 39.98 25.7C36.45 25.7 33.45 24.45 30.95 21.93C28.46 19.42 27.21 16.39 27.21 12.85C27.21 9.3 28.46 6.27 30.95 3.76C33.45 1.25 36.45 -0.01 39.98 -0.01C43.5 -0.01 46.51 1.25 49 3.76ZM39.98 3.27C37.35 3.27 35.11 4.21 33.25 6.07C31.4 7.94 30.47 10.2 30.47 12.85C30.47 15.49 31.4 17.75 33.26 19.63C35.12 21.5 37.36 22.44 39.98 22.44C42.6 22.44 44.85 21.5 46.7 19.63C48.55 17.75 49.48 15.49 49.48 12.85C49.48 10.2 48.55 7.94 46.7 6.07C44.85 4.21 42.6 3.27 39.98 3.27ZM58.64 0.32L61.58 0.32L71.86 18.25L71.86 0.32L75.11 0.32L75.11 25.43L72.29 25.43L61.86 7.29L61.86 25.44L58.64 25.44L58.64 0.32ZM84.91 0.32L84.91 25.43L81.69 25.43L81.69 0.32L84.91 0.32ZM110.8 19.45L113.22 21.64C110.27 24.35 107.15 25.7 103.85 25.7C100.33 25.7 97.33 24.45 94.85 21.95C92.36 19.45 91.12 16.43 91.12 12.88C91.12 9.34 92.36 6.32 94.85 3.81C97.33 1.3 100.33 0.04 103.85 0.04C107.15 0.04 110.27 1.4 113.22 4.1L110.8 6.32C108.58 4.33 106.26 3.34 103.85 3.34C101.25 3.34 99.01 4.27 97.16 6.13C95.31 7.99 94.38 10.24 94.38 12.88C94.38 15.53 95.31 17.78 97.16 19.64C99.01 21.51 101.25 22.44 103.85 22.44C106.26 22.44 108.58 21.44 110.8 19.45ZM52.97 40.86L56.32 40.86L56.32 41.53L52.24 41.53L52.24 34.31L52.97 34.31L52.97 40.86ZM57.53 39.33C57.55 39.57 57.61 39.79 57.71 40C57.88 40.41 58.21 40.73 58.62 40.91C58.82 41 59.04 41.04 59.28 41.04C59.64 41.04 59.94 40.96 60.2 40.79C60.46 40.63 60.66 40.43 60.8 40.22L61.31 40.65C61.03 41.01 60.72 41.26 60.38 41.42C60.03 41.58 59.66 41.66 59.28 41.66C58.93 41.66 58.6 41.59 58.3 41.47C58 41.34 57.74 41.17 57.52 40.94C57.3 40.71 57.13 40.44 57.01 40.14C56.88 39.83 56.82 39.49 56.82 39.14C56.82 38.78 56.88 38.45 57.01 38.14C57.13 37.84 57.3 37.57 57.51 37.35C57.73 37.12 57.98 36.95 58.27 36.82C58.56 36.7 58.88 36.63 59.22 36.63C59.57 36.63 59.9 36.7 60.18 36.83C60.46 36.96 60.7 37.13 60.89 37.34C61.09 37.56 61.23 37.81 61.33 38.1C61.44 38.39 61.49 38.69 61.49 39.02L61.49 39.33L57.53 39.33ZM60.76 38.78C60.76 38.32 60.62 37.95 60.35 37.67C60.08 37.39 59.7 37.24 59.22 37.24C59 37.24 58.79 37.29 58.59 37.37C58.38 37.46 58.21 37.57 58.06 37.71C57.9 37.85 57.78 38.02 57.69 38.2C57.6 38.38 57.55 38.58 57.55 38.78L60.76 38.78ZM63.07 42.49C63.26 42.76 63.52 42.97 63.83 43.13C64.15 43.29 64.5 43.37 64.88 43.37C65.22 43.37 65.51 43.32 65.74 43.22C65.96 43.13 66.16 43 66.32 42.82C66.46 42.65 66.57 42.45 66.63 42.22C66.69 41.99 66.73 41.75 66.73 41.49L66.73 40.63L66.71 40.63C66.49 40.96 66.23 41.19 65.92 41.33C65.61 41.46 65.27 41.53 64.93 41.53C64.59 41.53 64.26 41.47 63.97 41.35C63.67 41.23 63.41 41.06 63.18 40.84C62.96 40.63 62.78 40.37 62.65 40.07C62.52 39.77 62.46 39.44 62.46 39.1C62.46 38.76 62.52 38.43 62.64 38.13C62.76 37.83 62.93 37.57 63.14 37.35C63.36 37.12 63.61 36.95 63.9 36.82C64.2 36.7 64.52 36.63 64.87 36.63C65.01 36.63 65.16 36.65 65.32 36.67C65.67 36.73 65.99 36.88 66.27 37.1C66.43 37.22 66.57 37.37 66.71 37.55L66.73 37.55L66.73 36.75L67.4 36.75L67.4 41.49C67.4 41.75 67.36 42.03 67.3 42.32C67.24 42.61 67.11 42.88 66.92 43.13C66.72 43.39 66.45 43.6 66.15 43.74C65.82 43.9 65.39 43.98 64.85 43.98C64.38 43.98 63.96 43.91 63.58 43.75C63.2 43.58 62.85 43.33 62.57 43.02L63.07 42.49ZM63.19 39.08C63.19 39.56 63.37 40.02 63.7 40.37C63.86 40.54 64.05 40.67 64.26 40.77C64.47 40.87 64.7 40.92 64.95 40.92C65.43 40.92 65.89 40.74 66.23 40.41C66.4 40.25 66.53 40.06 66.62 39.84C66.71 39.61 66.75 39.36 66.75 39.08C66.75 38.83 66.71 38.59 66.62 38.37C66.55 38.16 66.43 37.96 66.27 37.79C66.11 37.62 65.92 37.48 65.7 37.39C65.47 37.29 65.21 37.24 64.95 37.24C64.7 37.24 64.47 37.29 64.26 37.39C63.94 37.54 63.66 37.78 63.47 38.08C63.28 38.38 63.19 38.73 63.19 39.08ZM71.94 38.6L71.94 38.48C71.94 37.66 71.53 37.24 70.72 37.24C70.17 37.24 69.68 37.43 69.27 37.81L68.87 37.33C69.31 36.86 69.98 36.63 70.87 36.63C71.1 36.63 71.32 36.67 71.54 36.73C71.75 36.8 71.93 36.91 72.09 37.05C72.24 37.19 72.37 37.36 72.46 37.57C72.56 37.78 72.61 38.04 72.61 38.33L72.61 40.46C72.61 40.64 72.62 40.84 72.63 41.04C72.65 41.24 72.67 41.4 72.69 41.53L72.04 41.53C72.02 41.41 72 41.28 71.99 41.16C71.98 41.02 71.98 40.89 71.98 40.76L71.96 40.76C71.76 41.08 71.53 41.31 71.26 41.45C71 41.59 70.67 41.66 70.28 41.66C70.07 41.66 69.87 41.63 69.68 41.57C69.49 41.51 69.31 41.42 69.15 41.3C68.99 41.18 68.87 41.02 68.78 40.84C68.69 40.66 68.65 40.46 68.65 40.26C68.65 39.87 68.75 39.56 68.95 39.34C69.16 39.12 69.41 38.95 69.7 38.85C70 38.74 70.32 38.67 70.67 38.64C71.01 38.62 71.32 38.6 71.6 38.6L71.94 38.6ZM71.59 39.15C71.42 39.15 71.21 39.16 70.96 39.18C70.71 39.2 70.47 39.24 70.23 39.3C70.01 39.36 69.81 39.46 69.63 39.6C69.55 39.67 69.48 39.76 69.44 39.85C69.4 39.95 69.38 40.06 69.38 40.17C69.38 40.32 69.42 40.46 69.48 40.57C69.54 40.68 69.63 40.77 69.74 40.84C69.85 40.91 69.97 40.97 70.1 41C70.23 41.03 70.36 41.04 70.5 41.04C70.74 41.04 70.95 41 71.13 40.92C71.31 40.84 71.46 40.73 71.58 40.59C71.7 40.45 71.8 40.28 71.85 40.1C71.91 39.91 71.94 39.71 71.94 39.5L71.94 39.15L71.59 39.15ZM74.98 41.53L74.31 41.53L74.31 33.81L74.98 33.81L74.98 41.53ZM83.05 35.5C82.73 35.03 82.27 34.79 81.66 34.79C81.47 34.79 81.28 34.82 81.1 34.87C80.92 34.92 80.76 35 80.61 35.11C80.45 35.22 80.33 35.37 80.24 35.54C80.16 35.72 80.12 35.91 80.13 36.1C80.13 36.43 80.22 36.68 80.4 36.86C80.58 37.04 80.81 37.19 81.08 37.31C81.35 37.42 81.65 37.53 81.97 37.62C82.29 37.71 82.58 37.83 82.85 37.99C83.12 38.14 83.35 38.34 83.53 38.59C83.72 38.84 83.81 39.19 83.81 39.62C83.81 39.95 83.74 40.25 83.6 40.51C83.47 40.76 83.28 40.99 83.05 41.17C82.83 41.34 82.57 41.48 82.29 41.57C82.02 41.67 81.73 41.72 81.44 41.72C81.01 41.72 80.59 41.63 80.19 41.47C79.79 41.29 79.44 41.01 79.18 40.64L79.85 40.16C80.01 40.43 80.22 40.64 80.5 40.8C80.78 40.96 81.1 41.04 81.48 41.04C81.66 41.04 81.84 41.01 82.03 40.96C82.21 40.9 82.37 40.81 82.52 40.7C82.66 40.59 82.78 40.45 82.88 40.29C82.97 40.12 83.02 39.94 83.02 39.73C83.02 39.47 82.96 39.27 82.86 39.1C82.75 38.93 82.61 38.79 82.44 38.68C82.26 38.56 82.06 38.47 81.86 38.4C81.63 38.32 81.4 38.25 81.18 38.17C80.95 38.1 80.72 38.01 80.5 37.92C80.28 37.83 80.09 37.71 79.91 37.56C79.73 37.4 79.59 37.22 79.49 37C79.39 36.78 79.34 36.51 79.34 36.17C79.34 35.83 79.4 35.52 79.53 35.26C79.66 35.01 79.84 34.79 80.06 34.62C80.28 34.45 80.53 34.32 80.81 34.24C81.08 34.16 81.37 34.12 81.66 34.12C82.06 34.12 82.43 34.19 82.76 34.31C83.09 34.44 83.4 34.67 83.69 35L83.05 35.5ZM89.84 39.14C89.84 39.5 89.78 39.84 89.65 40.14C89.53 40.44 89.35 40.71 89.13 40.94C88.9 41.17 88.63 41.35 88.33 41.47C88.03 41.59 87.69 41.66 87.31 41.66C86.95 41.66 86.61 41.59 86.31 41.47C86.01 41.35 85.74 41.17 85.51 40.94C85.28 40.71 85.11 40.44 84.99 40.14C84.86 39.83 84.8 39.49 84.8 39.14C84.8 38.78 84.86 38.45 84.99 38.14C85.11 37.84 85.29 37.57 85.51 37.35C85.73 37.12 86 36.95 86.31 36.82C86.63 36.69 86.97 36.63 87.31 36.63C87.69 36.63 88.02 36.7 88.33 36.82C88.64 36.95 88.91 37.12 89.13 37.35C89.35 37.57 89.53 37.84 89.65 38.14C89.78 38.45 89.84 38.78 89.84 39.14L89.84 39.14ZM89.11 39.14C89.11 38.89 89.07 38.64 88.98 38.4C88.86 38.05 88.64 37.75 88.34 37.55C88.04 37.34 87.68 37.23 87.31 37.24C87.04 37.24 86.79 37.29 86.57 37.39C86.35 37.49 86.16 37.63 86.01 37.8C85.86 37.97 85.74 38.17 85.66 38.4C85.57 38.63 85.53 38.88 85.53 39.14C85.53 39.41 85.57 39.66 85.66 39.89C85.74 40.12 85.86 40.32 86.01 40.49C86.16 40.66 86.35 40.8 86.57 40.89C86.79 40.99 87.04 41.04 87.31 41.04C87.59 41.04 87.84 40.99 88.06 40.89C88.28 40.8 88.47 40.66 88.62 40.49C88.78 40.32 88.9 40.12 88.98 39.89C89.07 39.66 89.11 39.41 89.11 39.14ZM91.88 41.53L91.21 41.53L91.21 33.81L91.88 33.81L91.88 41.53ZM96.91 41.53C96.9 41.41 96.89 41.28 96.89 41.15C96.88 41.02 96.88 40.89 96.88 40.77L96.86 40.77C96.79 40.9 96.69 41.02 96.58 41.12C96.46 41.23 96.34 41.33 96.19 41.4C96.05 41.48 95.9 41.54 95.74 41.59C95.58 41.63 95.43 41.66 95.27 41.66C94.66 41.66 94.21 41.49 93.92 41.17C93.63 40.85 93.49 40.39 93.49 39.79L93.49 36.75L94.16 36.75L94.16 39.4C94.16 39.67 94.18 39.9 94.22 40.1C94.26 40.31 94.33 40.48 94.43 40.62C94.52 40.76 94.65 40.86 94.82 40.94C94.99 41.01 95.19 41.04 95.44 41.04C95.48 41.04 95.57 41.03 95.73 41C95.91 40.96 96.07 40.89 96.22 40.78C96.39 40.65 96.54 40.47 96.68 40.23C96.81 39.98 96.88 39.64 96.88 39.2L96.88 36.75L97.55 36.75L97.55 40.48C97.56 40.83 97.58 41.18 97.6 41.53L96.91 41.53ZM101.58 37.37L100.21 37.37L100.21 40.19C100.21 40.36 100.22 40.51 100.26 40.62C100.29 40.73 100.34 40.82 100.4 40.88C100.46 40.94 100.54 40.98 100.62 41.01C100.7 41.03 100.8 41.04 100.9 41.04C101.01 41.04 101.13 41.03 101.25 40.99C101.37 40.96 101.49 40.91 101.59 40.86L101.62 41.48C101.21 41.66 100.75 41.7 100.31 41.6C100.17 41.57 100.04 41.5 99.93 41.41C99.81 41.3 99.71 41.17 99.65 41.02C99.58 40.86 99.54 40.64 99.54 40.38L99.54 37.37L98.54 37.37L98.54 36.75L99.54 36.75L99.54 35.41L100.21 35.41L100.21 36.75L101.58 36.75L101.58 37.37ZM103.46 34.92C103.46 35.06 103.41 35.18 103.31 35.27C103.22 35.36 103.1 35.4 102.98 35.41C102.85 35.41 102.73 35.36 102.64 35.27C102.59 35.23 102.55 35.17 102.53 35.11C102.5 35.05 102.49 34.98 102.49 34.92C102.49 34.77 102.54 34.66 102.64 34.57C102.73 34.48 102.85 34.43 102.98 34.43C103.1 34.43 103.21 34.47 103.31 34.57C103.41 34.66 103.46 34.77 103.46 34.92ZM103.31 41.53L102.64 41.53L102.64 36.75L103.31 36.75L103.31 41.53ZM109.72 39.14C109.72 39.5 109.65 39.84 109.53 40.14C109.4 40.45 109.23 40.72 109.01 40.94C108.78 41.17 108.51 41.35 108.21 41.47C107.89 41.6 107.54 41.66 107.19 41.66C106.83 41.66 106.49 41.59 106.18 41.47C105.89 41.35 105.61 41.17 105.39 40.94C105.16 40.71 104.99 40.44 104.87 40.14C104.74 39.83 104.67 39.49 104.68 39.14C104.68 38.78 104.74 38.45 104.87 38.14C104.99 37.84 105.16 37.57 105.39 37.35C105.61 37.12 105.88 36.95 106.18 36.82C106.5 36.69 106.85 36.63 107.19 36.63C107.56 36.63 107.9 36.7 108.21 36.82C108.52 36.95 108.78 37.12 109.01 37.35C109.23 37.57 109.4 37.84 109.53 38.14C109.65 38.45 109.72 38.78 109.72 39.14ZM108.99 39.14C108.99 38.89 108.94 38.64 108.86 38.4C108.78 38.18 108.66 37.97 108.5 37.8C108.34 37.62 108.15 37.49 107.94 37.39C107.7 37.29 107.45 37.24 107.19 37.24C106.91 37.24 106.67 37.29 106.45 37.39C106.23 37.49 106.04 37.63 105.89 37.8C105.73 37.97 105.61 38.18 105.53 38.4C105.45 38.63 105.41 38.88 105.41 39.14C105.41 39.41 105.45 39.66 105.53 39.89C105.62 40.12 105.74 40.32 105.89 40.49C106.04 40.66 106.23 40.8 106.45 40.89C106.67 40.99 106.91 41.04 107.19 41.04C107.47 41.04 107.72 40.99 107.94 40.89C108.16 40.8 108.34 40.66 108.5 40.49C108.65 40.32 108.77 40.12 108.86 39.89C108.94 39.66 108.99 39.41 108.99 39.14L108.99 39.14ZM111.57 36.75C111.58 36.88 111.59 37.01 111.6 37.14C111.6 37.26 111.6 37.39 111.6 37.52L111.62 37.52C111.69 37.39 111.79 37.27 111.9 37.16C112.14 36.94 112.43 36.78 112.74 36.7C112.9 36.65 113.06 36.63 113.21 36.63C113.82 36.63 114.27 36.79 114.56 37.12C114.85 37.44 115 37.9 115 38.5L115 41.53L114.33 41.53L114.33 38.89C114.33 38.36 114.24 37.95 114.05 37.67C113.87 37.39 113.53 37.24 113.04 37.24C112.94 37.25 112.85 37.27 112.76 37.29C112.58 37.32 112.41 37.4 112.26 37.51C112.07 37.66 111.91 37.84 111.8 38.06C111.67 38.31 111.6 38.65 111.6 39.08L111.6 41.53L110.93 41.53L110.93 37.81C110.92 37.46 110.91 37.1 110.88 36.75L111.57 36.75ZM42.98 38.72L0 38.72L0 37.38L42.98 37.38L42.98 38.72Z" fill="#3172B9" fill-opacity="1.000000" fill-rule="nonzero"/>
	</g>
</svg>
